<svg width="15" height="15" xmlns="http://www.w3.org/2000/svg">

 <g>
  <title>background</title>
  <rect fill="none" id="canvas_background" height="17" width="17" y="-1" x="-1"/>
 </g>
 <g>
  <title>Layer 1</title>
  <path stroke="null" id="svg_2" fill="#075e55" d="m4.848677,12.261755l8.520062,-4.344144c0.583178,-0.297315 0.583238,-1.098514 0.000121,-1.395945l-8.414968,-4.292429c-0.169595,-0.086501 -0.365343,-0.113551 -0.553506,-0.076438l-2.036662,0.401675c-0.5762,0.113609 -0.846582,0.752509 -0.515825,1.218871l1.820102,2.566534c0.181246,0.255548 0.474989,0.417091 0.796583,0.438033l6.760821,0.440709l-6.908147,0.492772c-0.251147,0.017917 -0.480025,0.144906 -0.621344,0.344783l-1.866217,2.639016c-0.332759,0.470492 -0.054307,1.113813 0.528143,1.220209l2.158807,0.39452c0.113165,0.020709 0.230334,0.003665 0.332031,-0.048166z"/>
 </g>
</svg>